<svg xmlns="http://www.w3.org/2000/svg" version="1.1" xmlns:xlink="http://www.w3.org/1999/xlink" xmlns:svgjs="http://svgjs.com/svgjs" width="1440" height="2000" preserveAspectRatio="none" viewBox="0 0 1440 2000"><g mask="url(&quot;#SvgjsMask1093&quot;)" fill="none"><rect width="1440" height="2000" x="0" y="0" fill="rgba(54, 217, 127, 1)"></rect><path d="M0,532.365C106.05,521.097,212.093,525.172,309.262,481.221C417.575,432.229,516.043,363.823,585.66,267.462C665.544,156.889,733.752,31.009,733.067,-105.399C732.339,-250.488,686.415,-403.602,581.787,-504.122C479.644,-602.255,324.643,-605.373,185.435,-631.532C59.545,-655.189,-71.191,-695.52,-190.644,-649.273C-306.918,-604.257,-365.596,-481.765,-446.486,-386.882C-526.634,-292.869,-649.944,-218.17,-662.909,-95.312C-675.837,27.197,-564.979,122.607,-511.989,233.817C-460.07,342.78,-458.861,490.957,-354.593,551.757C-250.22,612.618,-120.145,545.131,0,532.365" fill="#23b966"></path><path d="M1440 2548.753C1567.361 2541.42 1691.72 2619.0950000000003 1813.5520000000001 2581.259 1952.004 2538.261 2089.393 2455.798 2155.225 2326.632 2221.752 2196.102 2201.661 2037.331 2162.767 1896.0819999999999 2126.782 1765.397 2032.758 1665.723 1944.8310000000001 1562.561 1856.173 1458.5410000000002 1782.435 1316.034 1647.8899999999999 1291.991 1513.595 1267.993 1407.424 1404.829 1276.488 1443.1280000000002 1145.354 1481.4859999999999 975.435 1416.8339999999998 881.593 1516.138 788.227 1614.938 852.276 1778.164 832.753 1912.691 813.195 2047.454 729.136 2176.585 766.751 2307.462 806.048 2444.194 903.816 2577.928 1037.741 2625.927 1168.924 2672.943 1300.876 2556.763 1440 2548.753" fill="#61e19b"></path></g><defs><mask id="SvgjsMask1093"><rect width="1440" height="2000" fill="#ffffff"></rect></mask></defs></svg>